<?xml version="1.0" encoding="UTF-8"?>
<svg width="224px" height="224px" viewBox="0 0 224 224" version="1.1" xmlns="http://www.w3.org/2000/svg" xmlns:xlink="http://www.w3.org/1999/xlink" xmlns:sketch="http://www.bohemiancoding.com/sketch/ns">
    <!-- Generator: Sketch 3.4.2 (15855) - http://www.bohemiancoding.com/sketch -->
    <title>boot-logo</title>
    <desc>Created with Sketch.</desc>
    <defs></defs>
    <g id="Page-1" stroke="none" stroke-width="1" fill="none" fill-rule="evenodd" sketch:type="MSPage">
        <g id="Rectangle-1-+-Shape" sketch:type="MSLayerGroup">
            <rect id="Rectangle-1" fill="#4990E2" sketch:type="MSShapeGroup" x="0" y="0" width="224" height="224" rx="15"></rect>
            <path d="M21.480489,59.8828322 C21.5054589,59.8526267 21.520226,59.8170849 21.5442562,59.7861411 C22.6329604,58.3933074 24.2315717,57.4914369 25.9867103,57.2798918 L62.8356164,52.8118301 L62.8356164,81.9726027 C62.8435148,89.3835621 68.8493146,95.3893619 76.260274,95.3972603 L91.4972603,95.3972603 C97.8936669,95.3813833 103.395611,90.8665256 104.659701,84.5962507 L105.020253,82.7460979 C105.575236,80.0107666 107.755306,77.8983897 110.506777,77.4299336 L119.924677,75.8598192 L116.950411,106.598123 C116.831278,108.114501 116.829359,109.637812 116.944672,111.154486 L86.3640068,131.444479 C84.1984472,128.910204 80.4917354,128.369593 77.6925507,130.179776 L63.569811,139.243702 C60.597129,141.136594 59.6145541,145.01819 61.3285979,148.097465 L40.3269295,162.043469 L32.2892849,155.4477 C31.7707593,155.030786 31.2129375,154.665259 30.6236877,154.356275 C30.410437,154.243206 30.1836945,154.171317 29.9641007,154.074022 C29.5911276,153.899348 29.2078074,153.747679 28.8162925,153.619866 C28.7529952,153.600601 28.6950007,153.564556 28.6315021,153.546735 L20.1297336,64.5608219 C19.9708968,62.8866611 20.4536869,61.2146435 21.480489,59.8828322 L21.480489,59.8828322 L21.480489,59.8828322 L21.480489,59.8828322 Z M94.0800637,155.711394 L94.0767075,155.713038 L79.9539678,164.776964 L79.6229158,164.26139 C79.6083836,164.238434 79.6085849,164.211417 79.5934151,164.188662 C79.5805274,164.169197 79.5592158,164.160202 79.5458918,164.141139 L67.1946363,144.894006 L81.3140199,135.830047 L82.6596404,137.925602 L82.6610836,137.929294 L82.6644397,137.933187 L94.0800637,155.711394 L94.0800637,155.711394 L94.0800637,155.711394 L94.0800637,155.711394 Z M126.070351,192.726027 L121.67042,167.401351 L127.406474,162.341295 L132.681895,192.726027 L126.070351,192.726027 L126.070351,192.726027 L126.070351,192.726027 L126.070351,192.726027 Z M139.495009,192.726027 L133.314464,157.129474 L139.025079,152.091871 L146.104102,192.726027 L139.495009,192.726027 L139.495009,192.726027 L139.495009,192.726027 L139.495009,192.726027 Z M152.918425,192.726027 L144.93176,146.881124 L150.668855,141.820229 L159.529364,192.726027 L152.918425,192.726027 L152.918425,192.726027 L152.918425,192.726027 L152.918425,192.726027 Z M115.750314,172.546015 L119.256432,192.726027 L22.5616438,192.726027 L22.5616438,163.259609 C22.5533352,161.460864 23.9667642,159.976474 25.7637603,159.896732 C26.5942569,159.84168 27.4135731,160.112041 28.0482007,160.65056 L35.3083562,166.609632 C34.4861217,168.017407 34.0484916,169.61663 34.0393568,171.246911 C34.0499042,173.09024 34.5952847,174.890877 35.6093034,176.430272 L40.1125712,183.186835 C41.8615937,185.79272 44.7942774,187.355547 47.9327027,187.354184 C49.7639546,187.356234 51.5542766,186.812522 53.0751185,185.79246 L59.8519863,181.301644 C62.3287118,181.943296 64.8581465,182.360808 67.4096993,182.54913 C68.4309801,182.621399 69.4572727,182.657534 70.4885774,182.657534 L87.8726027,182.657534 C98.0610808,182.647272 107.924343,179.06977 115.750314,172.546015 L115.750314,172.546015 L115.750314,172.546015 L115.750314,172.546015 Z M49.3553137,180.205957 C48.1346244,181.004247 46.4985402,180.668399 45.6910534,179.453773 L41.2206425,172.748157 C40.8127924,172.156211 40.6624068,171.424182 40.8038588,170.719389 C40.9453108,170.014596 41.3665091,169.397284 41.9711815,169.008551 L64.9161699,153.772638 L72.1744459,165.081301 L49.3553137,180.205957 L49.3553137,180.205957 L49.3553137,180.205957 L49.3553137,180.205957 Z M200.379355,203.784321 C199.107342,205.286493 197.238247,206.152129 195.269863,206.150685 L25.9178082,206.150685 C24.0650167,206.148835 22.5634939,204.647312 22.5616438,202.794521 L22.5616438,199.438356 L201.950308,199.438356 C201.959813,201.027677 201.402877,202.568412 200.379355,203.784321 L200.379355,203.784321 L200.379355,203.784321 L200.379355,203.784321 L200.379355,203.784321 Z M186.379719,192.726027 L179.768579,192.726027 L169.261905,132.315068 L175.883617,132.315068 L186.379719,192.726027 L186.379719,192.726027 L186.379719,192.726027 L186.379719,192.726027 Z M193.234416,146.323128 L200.956816,192.726027 L193.193639,192.726027 L182.910351,133.540438 C188.347723,135.706211 192.261284,140.551768 193.234416,146.323128 L193.234416,146.323128 L193.234416,146.323128 L193.234416,146.323128 Z M162.599784,133.188712 L172.954424,192.726027 L166.343518,192.726027 L156.574697,136.601226 L156.677127,136.510274 C158.403677,135.010069 160.419365,133.879624 162.599784,133.188712 L162.599784,133.188712 L162.599784,133.188712 L162.599784,133.188712 L162.599784,133.188712 Z M112.302996,166.714109 C105.555935,172.664441 96.8686728,175.946949 87.8726027,175.945205 L70.4885774,175.945205 C69.711424,175.945205 68.9516555,175.829686 68.181013,175.781324 L76.3379021,170.375483 C78.5239119,171.839555 81.3720949,171.860029 83.5789274,170.427537 L97.7016671,161.363577 C100.068494,159.833443 101.226204,156.986841 100.599178,154.239112 L130.053313,134.670156 C133.875205,137.469478 138.401642,139.148231 143.1246,139.518001 L112.302996,166.714109 L112.302996,166.714109 L112.302996,166.714109 L112.302996,166.714109 Z M124.947177,130.001966 L97.3284952,148.351493 L90.0688096,137.042662 L118.320498,118.298216 C118.591518,119.192943 118.910993,120.072269 119.277508,120.932301 C120.722271,124.211987 122.631754,127.266552 124.947177,130.001966 L124.947177,130.001966 L124.947177,130.001966 L124.947177,130.001966 L124.947177,130.001966 Z M120.594064,68.9439726 L109.418775,70.8060062 C103.916506,71.7396616 99.5542957,75.9598909 98.4391507,81.4282664 L98.0753425,83.2931527 C97.4408358,86.4242219 94.6919643,88.6773566 91.4972603,88.6849315 L76.260274,88.6849315 C72.5549128,88.680696 69.5521807,85.6779639 69.5479452,81.9726027 L69.5479452,51.9979938 L114.551358,46.541139 C116.57401,46.294956 118.599147,46.9795823 120.057511,48.4025732 C121.515876,49.8255641 122.250013,51.833283 122.05356,53.8613699 L120.594064,68.9439726 L120.594064,68.9439726 Z M25.9997322,29.24575 L105.593923,18.2677363 C107.457266,18.0075689 109.340884,18.5785341 110.746172,19.8294938 C112.305244,21.2047802 113.192226,23.1879268 113.178082,25.2668493 L113.178082,39.9472158 L25.1901918,50.6150863 C23.9736925,50.7768692 22.7861148,51.1095352 21.6625945,51.6032418 L20.1985685,36.982313 C19.7705583,33.2719987 22.3181184,29.8745149 25.9997322,29.24575 L25.9997322,29.24575 L25.9997322,29.24575 L25.9997322,29.24575 Z" id="Rectangle-1" fill="#FFFFFF" sketch:type="MSShapeGroup"></path>
            <path d="M89.0115126,65.6226467 L89.0122089,65.6231725 C87.0811978,64.1657905 84.0087219,64.8082078 82.1856605,67.2233259 C80.363019,69.6387587 80.5874997,72.7690167 82.5180963,74.2264377 C83.9208633,75.2851078 85.9679573,75.2578372 87.7334594,74.1223238 C88.3710697,73.7122336 89.1984558,73.7509891 89.7949404,74.2188855 L91.286048,75.3885446 C91.4932257,75.5510596 91.6617674,75.7575149 91.7795245,75.9930291 L91.7826788,75.9993377 C92.1610893,76.7561587 91.9544119,77.6747721 91.2883219,78.1965927 C87.5072979,81.1586788 82.4703201,81.484728 78.9064411,78.7947583 C74.4811171,75.4544983 74.0039209,68.7995571 77.671337,63.9402647 C81.3389086,59.0801989 87.8710875,57.714018 92.2956737,61.0541676 C92.636648,61.3114737 92.958502,61.5951265 93.2653707,61.9052988 C93.8905924,62.5372514 93.9537102,63.5335997 93.4132339,64.2393983 L93.3644861,64.3030571 C93.273481,64.4218991 93.167849,64.5287874 93.0500912,64.6211913 L91.4838548,65.850208 C90.810335,66.3787151 89.8559851,66.3528851 89.212039,65.78872 C89.1289057,65.7158864 89.066523,65.6642068 89.0115126,65.6226467 L89.0115126,65.6226467 Z" id="Shape" fill="#4990E2" sketch:type="MSShapeGroup"></path>
        </g>
    </g>
</svg>