<?xml version="1.0" encoding="UTF-8"?>
<svg width="224px" height="224px" viewBox="0 0 224 224" version="1.1" xmlns="http://www.w3.org/2000/svg" xmlns:xlink="http://www.w3.org/1999/xlink" xmlns:sketch="http://www.bohemiancoding.com/sketch/ns">
    <!-- Generator: Sketch 3.4.2 (15855) - http://www.bohemiancoding.com/sketch -->
    <title>boot-logo</title>
    <desc>Created with Sketch.</desc>
    <defs></defs>
    <g id="Page-1" stroke="none" stroke-width="1" fill="none" fill-rule="evenodd" sketch:type="MSPage">
        <rect id="Rectangle-1" fill="#4990E2" sketch:type="MSShapeGroup" x="0" y="0" width="224" height="224" rx="15"></rect>
        <g id="Rectangle-1-+-Shape" sketch:type="MSLayerGroup" transform="translate(20.000000, 18.000000)">
            <path d="M1.48048904,41.8828322 C1.5054589,41.8526267 1.52022603,41.8170849 1.54425616,41.7861411 C2.63296038,40.3933074 4.23157169,39.4914369 5.98671027,39.2798918 L42.8356164,34.8118301 L42.8356164,63.9726027 C42.8435148,71.3835621 48.8493146,77.3893619 56.260274,77.3972603 L71.4972603,77.3972603 C77.8936669,77.3813833 83.3956108,72.8665256 84.6597007,66.5962507 L85.0202534,64.7460979 C85.5752365,62.0107666 87.7553059,59.8983897 90.5067767,59.4299336 L99.9246774,57.8598192 L96.950411,88.5981233 C96.8312782,90.1145011 96.8293595,91.6378124 96.9446719,93.1544856 L66.3640068,113.444479 C64.1984472,110.910204 60.4917354,110.369593 57.6925507,112.179776 L43.569811,121.243702 C40.597129,123.136594 39.6145541,127.01819 41.3285979,130.097465 L20.3269295,144.043469 L12.2892849,137.4477 C11.7707593,137.030786 11.2129375,136.665259 10.6236877,136.356275 C10.410437,136.243206 10.1836945,136.171317 9.96410068,136.074022 C9.59112755,135.899348 9.20780737,135.747679 8.81629247,135.619866 C8.75299521,135.600601 8.69500068,135.564556 8.63150205,135.546735 L0.129733562,46.5608219 C-0.0291031603,44.8866611 0.453686926,43.2146435 1.48048904,41.8828322 L1.48048904,41.8828322 L1.48048904,41.8828322 Z M74.0800637,137.711394 L74.0767075,137.713038 L59.9539678,146.776964 L59.6229158,146.26139 C59.6083836,146.238434 59.6085849,146.211417 59.5934151,146.188662 C59.5805274,146.169197 59.5592158,146.160202 59.5458918,146.141139 L47.1946363,126.894006 L61.3140199,117.830047 L62.6596404,119.925602 L62.6610836,119.929294 L62.6644397,119.933187 L74.0800637,137.711394 L74.0800637,137.711394 L74.0800637,137.711394 Z M106.070351,174.726027 L101.67042,149.401351 L107.406474,144.341295 L112.681895,174.726027 L106.070351,174.726027 L106.070351,174.726027 L106.070351,174.726027 Z M119.495009,174.726027 L113.314464,139.129474 L119.025079,134.091871 L126.104102,174.726027 L119.495009,174.726027 L119.495009,174.726027 L119.495009,174.726027 Z M132.918425,174.726027 L124.93176,128.881124 L130.668855,123.820229 L139.529364,174.726027 L132.918425,174.726027 L132.918425,174.726027 L132.918425,174.726027 Z M95.7503137,154.546015 L99.2564315,174.726027 L2.56164384,174.726027 L2.56164384,145.259609 C2.55333525,143.460864 3.96676424,141.976474 5.76376027,141.896732 C6.59425694,141.84168 7.41357309,142.112041 8.04820068,142.65056 L15.3083562,148.609632 C14.4861217,150.017407 14.0484916,151.61663 14.0393568,153.246911 C14.0499042,155.09024 14.5952847,156.890877 15.6093034,158.430272 L20.1125712,165.186835 C21.8615937,167.79272 24.7942774,169.355547 27.9327027,169.354184 C29.7639546,169.356234 31.5542766,168.812522 33.0751185,167.79246 L39.8519863,163.301644 C42.3287118,163.943296 44.8581465,164.360808 47.4096993,164.54913 C48.4309801,164.621399 49.4572727,164.657534 50.4885774,164.657534 L67.8726027,164.657534 C78.0610808,164.647272 87.9243435,161.06977 95.7503137,154.546015 L95.7503137,154.546015 L95.7503137,154.546015 Z M29.3553137,162.205957 C28.1346244,163.004247 26.4985402,162.668399 25.6910534,161.453773 L21.2206425,154.748157 C20.8127924,154.156211 20.6624068,153.424182 20.8038588,152.719389 C20.9453108,152.014596 21.3665091,151.397284 21.9711815,151.008551 L44.9161699,135.772638 L52.1744459,147.081301 L29.3553137,162.205957 L29.3553137,162.205957 L29.3553137,162.205957 Z M180.379355,185.784321 C179.107342,187.286493 177.238247,188.152129 175.269863,188.150685 L5.91780822,188.150685 C4.06501666,188.148835 2.56349385,186.647312 2.56164384,184.794521 L2.56164384,181.438356 L181.950308,181.438356 C181.959813,183.027677 181.402877,184.568412 180.379355,185.784321 L180.379355,185.784321 L180.379355,185.784321 L180.379355,185.784321 Z M166.379719,174.726027 L159.768579,174.726027 L149.261905,114.315068 L155.883617,114.315068 L166.379719,174.726027 L166.379719,174.726027 L166.379719,174.726027 Z M173.234416,128.323128 L180.956816,174.726027 L173.193639,174.726027 L162.910351,115.540438 C168.347723,117.706211 172.261284,122.551768 173.234416,128.323128 L173.234416,128.323128 L173.234416,128.323128 Z M142.599784,115.188712 L152.954424,174.726027 L146.343518,174.726027 L136.574697,118.601226 L136.677127,118.510274 C138.403677,117.010069 140.419365,115.879624 142.599784,115.188712 L142.599784,115.188712 L142.599784,115.188712 L142.599784,115.188712 Z M92.3029959,148.714109 C85.5559352,154.664441 76.8686728,157.946949 67.8726027,157.945205 L50.4885774,157.945205 C49.711424,157.945205 48.9516555,157.829686 48.181013,157.781324 L56.3379021,152.375483 C58.5239119,153.839555 61.3720949,153.860029 63.5789274,152.427537 L77.7016671,143.363577 C80.068494,141.833443 81.2262036,138.986841 80.5991781,136.239112 L110.053313,116.670156 C113.875205,119.469478 118.401642,121.148231 123.1246,121.518001 L92.3029959,148.714109 L92.3029959,148.714109 L92.3029959,148.714109 Z M104.947177,112.001966 L77.3284952,130.351493 L70.0688096,119.042662 L98.3204979,100.298216 C98.591518,101.192943 98.9109933,102.072269 99.2775082,102.932301 C100.722271,106.211987 102.631754,109.266552 104.947177,112.001966 L104.947177,112.001966 L104.947177,112.001966 L104.947177,112.001966 Z M102.05356,35.8613699 L100.594064,50.9439726 L89.4187753,52.8060062 C83.9165063,53.7396616 79.5542957,57.9598909 78.4391507,63.4282664 L78.0753425,65.2931527 C77.4408358,68.4242219 74.6919643,70.6773566 71.4972603,70.6849315 L56.260274,70.6849315 C52.5549128,70.680696 49.5521807,67.6779639 49.5479452,63.9726027 L49.5479452,33.9979938 L94.5513575,28.541139 C96.5740104,28.294956 98.5991468,28.9795823 100.057511,30.4025732 C101.515876,31.8255641 102.250013,33.833283 102.05356,35.8613699 L102.05356,35.8613699 L102.05356,35.8613699 Z M5.99973219,11.24575 L85.5939226,0.267736301 C87.4572657,0.00756885479 89.3408841,0.578534105 90.7461719,1.82949384 C92.3052442,3.20478016 93.1922261,5.18792678 93.1780822,7.26684932 L93.1780822,21.9472158 L5.19019178,32.6150863 C3.97369251,32.7768692 2.78611482,33.1095352 1.66259452,33.6032418 L0.198568493,18.982313 C-0.229441708,15.2719987 2.31811843,11.8745149 5.99973219,11.24575 L5.99973219,11.24575 L5.99973219,11.24575 Z" id="Rectangle-1" fill="#FFFFFF" sketch:type="MSShapeGroup"></path>
            <path d="M70.0845003,46.2024012 C70.1888778,46.2812578 70.2878071,46.3647025 70.3850158,46.4498677 L71.9512523,45.220851 L72,45.1571922 C71.7602758,44.9148872 71.502773,44.6857728 71.2234771,44.4750105 C67.6293344,41.7617682 62.1974017,42.8975907 59.0921702,47.012474 C55.9872255,51.1264971 56.3838028,56.6605133 59.9788057,59.3740423 C62.9139936,61.589484 67.0727498,61.2379267 70.1905984,58.7953779 L70.1874441,58.7890693 L68.6963365,57.6194102 C66.3859801,59.1053562 63.5196126,59.2123145 61.4458261,57.6472251 C58.6846964,55.5628288 58.3798796,51.3117385 60.7647914,48.151164 C63.1505635,44.9905896 67.3230839,44.1182917 70.0845003,46.2024012 L70.0845003,46.2024012 L70.0845003,46.2024012 Z" id="Shape" stroke="#4990E2" stroke-width="1.78" stroke-linecap="round" stroke-linejoin="round" fill="#4990E2" sketch:type="MSShapeGroup"></path>
        </g>
    </g>
</svg>