<?xml version="1.0" encoding="UTF-8"?>
<svg width="224px" height="224px" viewBox="0 0 224 224" version="1.1" xmlns="http://www.w3.org/2000/svg" xmlns:xlink="http://www.w3.org/1999/xlink" xmlns:sketch="http://www.bohemiancoding.com/sketch/ns">
    <!-- Generator: Sketch 3.4.2 (15855) - http://www.bohemiancoding.com/sketch -->
    <title>boot-logo</title>
    <desc>Created with Sketch.</desc>
    <defs></defs>
    <g id="Page-1" stroke="none" stroke-width="1" fill="none" fill-rule="evenodd" sketch:type="MSPage">
        <g id="Rectangle-1-+-Shape" sketch:type="MSLayerGroup" transform="translate(-2.000000, 1.000000)">
            <rect id="Rectangle-1" fill="#4990E2" sketch:type="MSShapeGroup" x="0" y="0" width="224" height="224" rx="15"></rect>
            <path d="M22.480489,58.8828322 C22.5054589,58.8526267 22.520226,58.8170849 22.5442562,58.7861411 C23.6329604,57.3933074 25.2315717,56.4914369 26.9867103,56.2798918 L63.8356164,51.8118301 L63.8356164,80.9726027 C63.8435148,88.3835621 69.8493146,94.3893619 77.260274,94.3972603 L92.4972603,94.3972603 C98.8936669,94.3813833 104.395611,89.8665256 105.659701,83.5962507 L106.020253,81.7460979 C106.575236,79.0107666 108.755306,76.8983897 111.506777,76.4299336 L120.924677,74.8598192 L117.950411,105.598123 C117.831278,107.114501 117.829359,108.637812 117.944672,110.154486 L87.3640068,130.444479 C85.1984472,127.910204 81.4917354,127.369593 78.6925507,129.179776 L64.569811,138.243702 C61.597129,140.136594 60.6145541,144.01819 62.3285979,147.097465 L41.3269295,161.043469 L33.2892849,154.4477 C32.7707593,154.030786 32.2129375,153.665259 31.6236877,153.356275 C31.410437,153.243206 31.1836945,153.171317 30.9641007,153.074022 C30.5911276,152.899348 30.2078074,152.747679 29.8162925,152.619866 C29.7529952,152.600601 29.6950007,152.564556 29.6315021,152.546735 L21.1297336,63.5608219 C20.9708968,61.8866611 21.4536869,60.2146435 22.480489,58.8828322 L22.480489,58.8828322 L22.480489,58.8828322 L22.480489,58.8828322 Z M95.0800637,154.711394 L95.0767075,154.713038 L80.9539678,163.776964 L80.6229158,163.26139 C80.6083836,163.238434 80.6085849,163.211417 80.5934151,163.188662 C80.5805274,163.169197 80.5592158,163.160202 80.5458918,163.141139 L68.1946363,143.894006 L82.3140199,134.830047 L83.6596404,136.925602 L83.6610836,136.929294 L83.6644397,136.933187 L95.0800637,154.711394 L95.0800637,154.711394 L95.0800637,154.711394 L95.0800637,154.711394 Z M127.070351,191.726027 L122.67042,166.401351 L128.406474,161.341295 L133.681895,191.726027 L127.070351,191.726027 L127.070351,191.726027 L127.070351,191.726027 L127.070351,191.726027 Z M140.495009,191.726027 L134.314464,156.129474 L140.025079,151.091871 L147.104102,191.726027 L140.495009,191.726027 L140.495009,191.726027 L140.495009,191.726027 L140.495009,191.726027 Z M153.918425,191.726027 L145.93176,145.881124 L151.668855,140.820229 L160.529364,191.726027 L153.918425,191.726027 L153.918425,191.726027 L153.918425,191.726027 L153.918425,191.726027 Z M116.750314,171.546015 L120.256432,191.726027 L23.5616438,191.726027 L23.5616438,162.259609 C23.5533352,160.460864 24.9667642,158.976474 26.7637603,158.896732 C27.5942569,158.84168 28.4135731,159.112041 29.0482007,159.65056 L36.3083562,165.609632 C35.4861217,167.017407 35.0484916,168.61663 35.0393568,170.246911 C35.0499042,172.09024 35.5952847,173.890877 36.6093034,175.430272 L41.1125712,182.186835 C42.8615937,184.79272 45.7942774,186.355547 48.9327027,186.354184 C50.7639546,186.356234 52.5542766,185.812522 54.0751185,184.79246 L60.8519863,180.301644 C63.3287118,180.943296 65.8581465,181.360808 68.4096993,181.54913 C69.4309801,181.621399 70.4572727,181.657534 71.4885774,181.657534 L88.8726027,181.657534 C99.0610808,181.647272 108.924343,178.06977 116.750314,171.546015 L116.750314,171.546015 L116.750314,171.546015 L116.750314,171.546015 Z M50.3553137,179.205957 C49.1346244,180.004247 47.4985402,179.668399 46.6910534,178.453773 L42.2206425,171.748157 C41.8127924,171.156211 41.6624068,170.424182 41.8038588,169.719389 C41.9453108,169.014596 42.3665091,168.397284 42.9711815,168.008551 L65.9161699,152.772638 L73.1744459,164.081301 L50.3553137,179.205957 L50.3553137,179.205957 L50.3553137,179.205957 L50.3553137,179.205957 Z M201.379355,202.784321 C200.107342,204.286493 198.238247,205.152129 196.269863,205.150685 L26.9178082,205.150685 C25.0650167,205.148835 23.5634939,203.647312 23.5616438,201.794521 L23.5616438,198.438356 L202.950308,198.438356 C202.959813,200.027677 202.402877,201.568412 201.379355,202.784321 L201.379355,202.784321 L201.379355,202.784321 L201.379355,202.784321 L201.379355,202.784321 Z M187.379719,191.726027 L180.768579,191.726027 L170.261905,131.315068 L176.883617,131.315068 L187.379719,191.726027 L187.379719,191.726027 L187.379719,191.726027 L187.379719,191.726027 Z M194.234416,145.323128 L201.956816,191.726027 L194.193639,191.726027 L183.910351,132.540438 C189.347723,134.706211 193.261284,139.551768 194.234416,145.323128 L194.234416,145.323128 L194.234416,145.323128 L194.234416,145.323128 Z M163.599784,132.188712 L173.954424,191.726027 L167.343518,191.726027 L157.574697,135.601226 L157.677127,135.510274 C159.403677,134.010069 161.419365,132.879624 163.599784,132.188712 L163.599784,132.188712 L163.599784,132.188712 L163.599784,132.188712 L163.599784,132.188712 Z M113.302996,165.714109 C106.555935,171.664441 97.8686728,174.946949 88.8726027,174.945205 L71.4885774,174.945205 C70.711424,174.945205 69.9516555,174.829686 69.181013,174.781324 L77.3379021,169.375483 C79.5239119,170.839555 82.3720949,170.860029 84.5789274,169.427537 L98.7016671,160.363577 C101.068494,158.833443 102.226204,155.986841 101.599178,153.239112 L131.053313,133.670156 C134.875205,136.469478 139.401642,138.148231 144.1246,138.518001 L113.302996,165.714109 L113.302996,165.714109 L113.302996,165.714109 L113.302996,165.714109 Z M125.947177,129.001966 L98.3284952,147.351493 L91.0688096,136.042662 L119.320498,117.298216 C119.591518,118.192943 119.910993,119.072269 120.277508,119.932301 C121.722271,123.211987 123.631754,126.266552 125.947177,129.001966 L125.947177,129.001966 L125.947177,129.001966 L125.947177,129.001966 L125.947177,129.001966 Z M121.594064,67.9439726 L110.418775,69.8060062 C104.916506,70.7396616 100.554296,74.9598909 99.4391507,80.4282664 L99.0753425,82.2931527 C98.4408358,85.4242219 95.6919643,87.6773566 92.4972603,87.6849315 L77.260274,87.6849315 C73.5549128,87.680696 70.5521807,84.6779639 70.5479452,80.9726027 L70.5479452,50.9979938 L115.551358,45.541139 C117.57401,45.294956 119.599147,45.9795823 121.057511,47.4025732 C122.515876,48.8255641 123.250013,50.833283 123.05356,52.8613699 L121.594064,67.9439726 L121.594064,67.9439726 Z M26.9997322,28.24575 L106.593923,17.2677363 C108.457266,17.0075689 110.340884,17.5785341 111.746172,18.8294938 C113.305244,20.2047802 114.192226,22.1879268 114.178082,24.2668493 L114.178082,38.9472158 L26.1901918,49.6150863 C24.9736925,49.7768692 23.7861148,50.1095352 22.6625945,50.6032418 L21.1985685,35.982313 C20.7705583,32.2719987 23.3181184,28.8745149 26.9997322,28.24575 L26.9997322,28.24575 L26.9997322,28.24575 L26.9997322,28.24575 Z" id="Rectangle-1" fill="#FFFFFF" sketch:type="MSShapeGroup"></path>
            <path d="M90.0115126,64.6226467 L90.0122089,64.6231725 C88.0811978,63.1657905 85.0087219,63.8082078 83.1856605,66.2233259 C81.363019,68.6387587 81.5874997,71.7690167 83.5180963,73.2264377 C84.9208633,74.2851078 86.9679573,74.2578372 88.7334594,73.1223238 C89.3710697,72.7122336 90.1984558,72.7509891 90.7949404,73.2188855 L92.286048,74.3885446 C92.4932257,74.5510596 92.6617674,74.7575149 92.7795245,74.9930291 L92.7826788,74.9993377 C93.1610893,75.7561587 92.9544119,76.6747721 92.2883219,77.1965927 C88.5072979,80.1586788 83.4703201,80.484728 79.9064411,77.7947583 C75.4811171,74.4544983 75.0039209,67.7995571 78.671337,62.9402647 C82.3389086,58.0801989 88.8710875,56.714018 93.2956737,60.0541676 C93.636648,60.3114737 93.958502,60.5951265 94.2653707,60.9052988 C94.8905924,61.5372514 94.9537102,62.5335997 94.4132339,63.2393983 L94.3644861,63.3030571 C94.273481,63.4218991 94.167849,63.5287874 94.0500912,63.6211913 L92.4838548,64.850208 C91.810335,65.3787151 90.8559851,65.3528851 90.212039,64.78872 C90.1289057,64.7158864 90.066523,64.6642068 90.0115126,64.6226467 L90.0115126,64.6226467 Z" id="Shape" fill="#4990E2" sketch:type="MSShapeGroup"></path>
        </g>
    </g>
</svg>